<?xml version="1.0" encoding="UTF-8"?>
<svg version="1.1" xmlns="http://www.w3.org/2000/svg" width="1080" height="1080">
<path d="M0 0 C356.4 0 712.8 0 1080 0 C1080 356.4 1080 712.8 1080 1080 C723.6 1080 367.2 1080 0 1080 C0 723.6 0 367.2 0 0 Z " fill="#FEFEFE" transform="translate(0,0)"/>
<path d="M0 0 C15.62266588 -0.09415621 31.24525301 -0.16432344 46.86813354 -0.20724869 C54.12491437 -0.22772457 61.38151719 -0.25555165 68.63818359 -0.30175781 C74.97573137 -0.34209174 81.31315004 -0.36754099 87.65082264 -0.37635398 C90.99524973 -0.38149176 94.33901981 -0.39546118 97.68338013 -0.42292023 C137.00924855 -0.73253648 175.77705823 6.97650733 205 35 C206.18125215 35.96602401 207.36828079 36.9250529 208.5625 37.875 C229.98332276 56.18553937 242.6115322 85.63919759 249.25 112.375 C249.4965332 113.3542041 249.74306641 114.3334082 249.99707031 115.34228516 C253.64985707 130.82999996 254.38352241 146.45854735 254.3125 162.3125 C254.31067719 163.16373444 254.30885437 164.01496887 254.30697632 164.89199829 C254.26051784 177.81123929 253.7230513 190.33118633 251 203 C250.83902832 203.80775879 250.67805664 204.61551758 250.51220703 205.44775391 C242.92986274 242.87875037 221.7053806 277.75099264 190.08959961 299.48828125 C159.98181232 319.44867675 127.01322523 322.34172881 91.89453125 322.1953125 C89.23125375 322.19157358 86.56798709 322.18863211 83.90470886 322.18673706 C77.66501365 322.18058198 71.42539061 322.16425434 65.18572682 322.14403808 C58.06814046 322.12149022 50.95055021 322.11063875 43.83293688 322.10064721 C29.22192112 322.07988094 14.61096157 322.04482451 0 322 C0.47050781 321.2471875 0.94101562 320.494375 1.42578125 319.71875 C2.35970703 318.12546875 2.35970703 318.12546875 3.3125 316.5 C3.92738281 315.4790625 4.54226563 314.458125 5.17578125 313.40625 C11.78305536 299.30528913 10.42872671 282.44473449 10.38818359 267.31079102 C10.3922556 264.74491147 10.39760099 262.17903369 10.40411377 259.61315918 C10.41736493 253.40257457 10.41461207 247.1920995 10.40587585 240.98151083 C10.39906483 235.9276819 10.39819724 230.8738834 10.4014473 225.82005119 C10.401907 225.09720732 10.40236669 224.37436344 10.40284032 223.6296152 C10.40379963 222.16056617 10.40477227 220.69151714 10.4057581 219.22246813 C10.4142869 205.48781729 10.40451776 191.75322679 10.388357 178.01858585 C10.37495896 166.26878941 10.37728255 154.51908194 10.39111328 142.76928711 C10.40721859 129.08099197 10.41346018 115.39274955 10.40427649 101.70444626 C10.40332098 100.2408857 10.40237786 98.77732514 10.4014473 97.31376457 C10.40075306 96.23399094 10.40075306 96.23399094 10.40004479 95.13240369 C10.39746949 90.09322093 10.40179419 85.054072 10.40888596 80.01489449 C10.41824722 73.21443983 10.41144967 66.41415456 10.39420319 59.61371613 C10.39026278 57.12944502 10.39133 54.64515969 10.39799118 52.16089439 C10.6984964 25.91316692 10.6984964 25.91316692 1 2 C0.67 1.34 0.34 0.68 0 0 Z " fill="#0D0561" transform="translate(550,338)"/>
<path d="M0 0 C1.13236084 0.2168042 1.13236084 0.2168042 2.28759766 0.43798828 C31.41849455 6.0360304 55.25687558 17.65189905 77 38 C74.6430494 45.26858257 72.01731387 52.426582 69.35714722 59.58831787 C64.29413519 73.2403644 59.47029214 86.84120807 56 101 C55.34 101 54.68 101 54 101 C52.34375 99.171875 52.34375 99.171875 50.5 96.75 C49.8915625 95.96109375 49.283125 95.1721875 48.65625 94.359375 C47 92 47 92 46.03125 89.828125 C44.70291513 87.47334956 43.43511519 87.10727158 41 86 C39.4768248 84.79967171 37.97883785 83.56704745 36.5 82.3125 C15.38066925 65.3125147 -8.67938993 61.49083936 -35 62 C-36.50433594 62.02513672 -36.50433594 62.02513672 -38.0390625 62.05078125 C-57.07163357 63.0819577 -75.71645158 71.63513719 -90 84 C-90.57363281 84.42023438 -91.14726562 84.84046875 -91.73828125 85.2734375 C-107.72535556 97.40156284 -117.34634374 121.05544268 -120.54418945 140.26977539 C-124.18750601 170.08564772 -121.18579185 204.30174615 -102.4375 228.8125 C-101.30373384 230.21815253 -100.15684789 231.61328169 -99 233 C-97.84951172 234.44826172 -97.84951172 234.44826172 -96.67578125 235.92578125 C-83.79998013 251.29976375 -61.77151459 261.18140203 -42.08203125 263.31640625 C-11.18768227 265.64178736 17.35597032 260.87399525 41.50415039 240.23242188 C45.70351807 236.48688106 49.20191214 232.3579668 52.51171875 227.80078125 C53.00285156 227.20652344 53.49398437 226.61226562 54 226 C54.66 226 55.32 226 56 226 C56.48243164 227.51630005 56.48243164 227.51630005 56.97460938 229.06323242 C65.1767983 254.8986121 65.1767983 254.8986121 74.57421875 280.31640625 C75.59024714 282.94137824 76.48660082 285.25888547 77 288 C75.24592522 290.82055225 72.50438145 292.84985671 70 295 C69.13375 295.75539063 68.2675 296.51078125 67.375 297.2890625 C32.78087615 325.66705472 -15.13177939 332.37118341 -58.5078125 328.50390625 C-98.97827996 324.07906401 -136.45360649 304.13375161 -162.07421875 272.26953125 C-175.65147295 254.65949823 -186.21456613 233.45706999 -192 212 C-192.22848633 211.18354004 -192.45697266 210.36708008 -192.69238281 209.52587891 C-196.77518739 194.28580255 -197.48192402 179.37065526 -197.5 163.6875 C-197.50440094 162.76949615 -197.50880188 161.85149231 -197.51333618 160.90567017 C-197.54801648 143.55757542 -196.27116602 126.03193943 -190.875 109.4375 C-190.5756958 108.49189209 -190.2763916 107.54628418 -189.96801758 106.57202148 C-176.91810252 66.67599575 -150.46504506 33.43551042 -113.02929688 14.02001953 C-98.27153752 6.60207937 -83.30544199 1.81472901 -67 -1 C-65.87207031 -1.20753906 -64.74414062 -1.41507812 -63.58203125 -1.62890625 C-42.82096954 -4.86645459 -20.5466462 -4.20262115 0 0 Z " fill="#0D0561" transform="translate(473,336)"/>
<path d="M0 0 C50.46341463 0 50.46341463 0 67.328125 16.2421875 C87.90528756 37.5892439 93.39826947 68.07290277 93.31567383 96.65405273 C93.31250589 98.93326435 93.33613305 101.21118067 93.36132812 103.49023438 C93.41981294 116.93253641 91.8244292 130.24170071 87.375 143 C87.12194092 143.7336377 86.86888184 144.46727539 86.6081543 145.22314453 C79.58814728 164.71090059 68.13295454 181.78783671 49 191 C34 195 34 195 0 195 C0 130.65 0 66.3 0 0 Z " fill="#FAFAFB" transform="translate(636,402)"/>
</svg>
